<svg class="icon" viewBox="0 0 1024 1024" xmlns="http://www.w3.org/2000/svg" width="64" height="64"><defs><style/></defs><path d="M745.801 851.352c9.538 16.142 4.197 37.642-12.421 46.706-16.421 9.539-37.202 3.917-46.509-12.488-9.997-16.126-4.13-37.15 11.96-46.672 16.883-9.539 37.5-3.671 46.97 12.454zM544.1 924.212c0 18.6-15.47 34.251-34.677 34.251-18.65 0-34.25-15.174-34.25-34.252v-23.957c0-19.06 15.601-34.234 34.25-34.234 19.01 0 34.677 15.174 34.677 34.234v23.957zM332.828 885.57c-9.8 16.896-30.81 22.272-46.935 12.733-16.651-9.309-22.517-30.3-12.717-46.951l25.433-44.493c9.768-16.403 30.778-22.009 47.395-12.716 16.192 9.554 22.026 30.808 12.258 46.934l-25.434 44.493zM169.047 747.19c-16.65 9.31-37.922 3.671-46.967-12.732-9.768-16.126-4.196-37.415 12.193-46.919l68.5-39.628c16.324-9.028 37.627-3.916 46.903 12.702 9.276 16.159 3.736 37.43-12.685 46.966l-67.944 39.61zM96.122 544.98c-19.011 0-34.186-15.421-34.186-34.25 0-19.076 15.175-34.48 34.186-34.48h106.652c19.042 0 34.217 15.404 34.217 34.25 0 19.059-15.175 34.48-34.217 34.48H96.122zm38.15-211.503c-16.65-9.323-21.96-30.35-12.193-46.705 9.045-16.65 30.316-22.256 46.967-12.717l115.829 67.24c16.42 9.274 21.796 30.3 12.749 46.442-9.8 16.65-30.808 22.025-46.935 12.7l-116.417-66.96zm138.904-163.845l80.661 140.116c9.866 16.354 30.776 22.253 47.231 12.47 16.387-9.306 21.729-30.563 12.192-46.934l-80.956-139.872c-9.275-16.124-30.285-22.025-46.411-12.487-16.651 9.539-22.026 30.581-12.717 46.707zm201.998-72.385c0-18.55 15.6-34.48 34.249-34.48 19.01 0 34.677 15.405 34.677 34.48v161.387c0 19.076-15.47 34.463-34.677 34.725-18.65 0-34.25-15.174-34.25-34.725V97.248zm211.205 38.166c9.8-16.65 30.58-22.025 47.002-12.715a33.87 33.87 0 0 1 12.65 46.934L665.075 309.75c-8.98 16.354-30.514 22.253-46.836 12.716-16.454-9.552-21.829-30.808-12.521-47.18l80.661-139.87zm164.338 138.643l-140.346 80.94c-16.388 9.274-21.991 30.3-12.748 46.934 9.8 16.125 30.874 21.5 46.968 12.472L885 333.48c16.06-9.323 21.926-30.35 12.226-46.705-9.277-16.652-30.351-22.518-46.51-12.717zm72.139 202.194c19.305 0 34.482 15.404 34.253 34.48 0 18.829-14.947 34.25-34.253 34.25h-161.65c-18.55 0-34.184-15.421-34.184-34.48 0-18.845 15.634-34.25 34.184-34.25h161.65z" fill="#fff"/></svg>