<svg class="icon" viewBox="0 0 1024 1024" xmlns="http://www.w3.org/2000/svg" width="64" height="64"><defs><style/></defs><path d="M859.973 0H164.027C73.227 0 0 73.227 0 164.027v695.946C0 950.773 73.227 1024 164.027 1024h695.946c90.8 0 164.027-73.227 164.027-164.027V164.027C1024 73.812 950.773 0 859.973 0zM554.178 407.725v66.783h124.779c22.846 0 41.592 19.332 41.592 43.35s-18.746 43.35-41.592 43.35H554.178v188.046c-.585 23.432-19.331 42.178-41.592 42.178s-41.007-18.746-41.593-42.178V561.208H346.215c-22.26-1.171-39.835-19.917-39.835-43.35s17.574-42.764 40.42-43.35h124.78v-66.783H346.215c-22.847 0-41.593-19.331-41.593-43.35 0-24.018 18.746-43.35 41.593-43.35h57.41l-39.836-73.812c-3.514-5.858-5.272-13.474-5.272-21.09 0-24.018 18.746-43.35 41.593-43.35 15.231 0 28.705 8.788 36.32 21.676l62.682 115.99c0 .586 0 .586.586 1.172h22.847l66.196-117.162c7.616-12.303 20.504-19.918 35.15-19.918 22.846 0 41.592 19.332 41.592 43.35 0 7.616-1.758 14.645-5.272 21.09l-41.007 73.226h60.924c22.261.586 40.421 19.917 40.421 43.35s-17.574 42.764-40.42 43.35l-125.95-1.172z" fill="#004198"/></svg>