<svg class="icon" viewBox="0 0 1024 1024" xmlns="http://www.w3.org/2000/svg" width="64" height="64"><defs><style/></defs><path d="M1023.652 701.281V197.494c0-108.595-88.13-196.726-196.798-196.726H197.08C88.484.768.353 88.898.353 197.494v629.775C.353 935.87 88.423 1024 197.08 1024h629.775c96.763 0 177.286-69.97 193.726-162.002-52.188-22.58-278.339-120.238-396.145-176.456-89.666 108.596-183.557 173.763-325.09 173.763S63.35 772.137 74.67 665.457c7.486-70.032 55.516-184.51 264.14-164.875 109.943 10.297 160.272 30.828 249.944 60.437 23.209-42.532 42.465-89.344 57.108-139.167H248.243v-39.398h196.731V311.72H205.01v-43.36h239.964V166.287s2.171-15.99 19.825-15.99h98.365V268.36H818.99v43.361H563.164v70.733H771.85c-19.18 78.09-48.281 149.847-84.74 212.52 60.63 21.945 336.542 106.307 336.542 106.307zm-739.973 90.496c-149.53 0-173.195-94.397-165.264-133.862 7.865-39.265 51.165-90.496 134.308-90.496 95.55 0 181.12 24.427 283.838 74.44-72.141 93.957-160.789 149.918-252.882 149.918z" fill="#009FE8"/></svg>