<svg class="icon" width="78" height="78" viewBox="0 0 1024 1024" xmlns="http://www.w3.org/2000/svg"><path fill="#20ABEB" d="M754.782 212.596L512 455.368 269.218 212.596c-13.081-13.081-34.29-13.081-47.369 0-13.081 13.081-13.081 34.288 0 47.367l242.782 242.771-242.782 242.773c-13.081 13.081-13.081 34.288 0 47.367 13.081 13.081 34.29 13.081 47.369 0L512 550.103l242.782 242.771c13.081 13.081 34.289 13.081 47.37 0 13.081-13.081 13.081-34.288 0-47.367L559.37 502.735l242.782-242.771c13.081-13.081 13.081-34.288 0-47.367-13.082-13.08-34.29-13.08-47.37-.001z"/></svg>