<?xml version="1.0" encoding="utf-8"?>
<!-- Generator: Adobe Illustrator 19.0.0, SVG Export Plug-In . SVG Version: 6.00 Build 0)  -->
<svg version="1.1" id="图层_1" xmlns:sketch="http://www.bohemiancoding.com/sketch/ns"
	 xmlns="http://www.w3.org/2000/svg" xmlns:xlink="http://www.w3.org/1999/xlink" x="0px" y="0px" width="256px" height="256px"
	 viewBox="-488 170.3 256 256" style="enable-background:new -488 170.3 256 256;" xml:space="preserve">
<style type="text/css">
	.st0{fill:#CC324B;}
</style>
<path class="st0" d="M-279.5,224c0-6.3-5.1-11.5-11.5-11.5h-138c-6.3,0-11.5,5.1-11.5,11.5l-11.5,68.8c0,4.3,3.6,8.8,7,10.7
	c1.3,1.2,2.6,2.2,4.3,3.1v65.7c0,6.3,5.1,11.5,11.5,11.5c0,0,130.1,0.6,138,0c7.9-0.6,11.5-5.1,11.5-11.5v-66c1.3-0.6,2.6-1.3,3.8-2
	c4.5-1.8,7.8-6.5,7.8-11.5C-268.1,292.6-279.5,224-279.5,224z M-435.9,224.7l0.1-0.8c0-3.8,3.1-6.9,6.9-6.9h138
	c3.8,0,6.9,3.1,6.9,6.9l0.1,0.8l0.9,5.7h-153.7L-435.9,224.7z M-284.3,372.3c0,3.8-3.1,6.9-6.9,6.9h-138c-3.8,0-6.9-3.1-6.9-6.9
	v-64.1c2.4,0.6,5.2,1,8.4,1c9.3,0,17.4-4.8,22.3-12c4.9,7.1,12.9,12,22.3,12c9.6,0,17.8-5.1,22.6-12.5c4.9,7.5,13.1,12.5,22.6,12.5
	c9.4,0,17.4-4.9,22.3-12c4.9,7.2,13,12,22.3,12c2.9,0,5.9-0.4,8.9-1.2V372.3z M-293.2,304.3c-8.5,0-15.7-4.8-19.6-11.7c0,0,0,0,0,0
	h-5.6c0,0,0,0,0,0c-3.8,6.9-11.1,11.7-19.6,11.7s-15.8-4.8-19.6-11.7h-6.1c-3.8,6.9-11.1,11.7-19.6,11.7c-8.4,0-15.7-4.7-19.5-11.6
	c0,0,0-0.1,0.1-0.1h-5.6c0,0,0,0.1,0.1,0.1c-3.8,6.9-11.1,11.6-19.5,11.6c-8.5,0-15.8-4.8-19.6-11.7h0l9.6-57.6h155.3l9.6,57.9
	C-276.6,299.6-284.8,304.3-293.2,304.3z"/>
</svg>
