<?xml version="1.0" encoding="utf-8"?>
<!-- Generator: Adobe Illustrator 19.0.0, SVG Export Plug-In . SVG Version: 6.00 Build 0)  -->
<svg version="1.1" id="图层_1" xmlns:sketch="http://www.bohemiancoding.com/sketch/ns"
	 xmlns="http://www.w3.org/2000/svg" xmlns:xlink="http://www.w3.org/1999/xlink" x="0px" y="0px" width="256px" height="256px"
	 viewBox="-292 170.3 256 256" style="enable-background:new -292 170.3 256 256;" xml:space="preserve">
<style type="text/css">
	.st0{fill:none;}
	.st1{fill:#2D2D2D;}
</style>
<g>
	<path class="st0" d="M-108.9,264.2c-5.1,0-9.3,4.2-9.3,9.3s4.2,9.3,9.3,9.3c5.1,0,9.3-4.2,9.3-9.3S-103.8,264.2-108.9,264.2z"/>
	<path class="st0" d="M-108.8,339.9c-2.2,0-4.1,1.2-5.1,3.1c0.1,0.5-0.1,1-0.4,1.4c0,0.1-0.1,0.1-0.1,0.1c-0.1,0.4-0.1,0.8-0.1,1.2
		c0,3.2,2.6,5.8,5.8,5.8s5.7-2.6,5.7-5.8C-103,342.5-105.6,339.9-108.8,339.9z"/>
	<path class="st0" d="M-235.8,296.2c-2.5,0-4.5,2-4.5,4.5s2,4.5,4.5,4.5s4.5-2,4.5-4.5S-233.3,296.2-235.8,296.2z"/>
	<path class="st0" d="M-221.2,270c8.2-8.2,8.2-21.5,0-29.7c-4-4-9.2-6.1-14.8-6.1c-5.6,0-10.9,2.2-14.8,6.1
		c-8.2,8.2-8.2,21.5,0,29.7l14.8,14.8L-221.2,270z M-245.3,254.1c0-5.1,4.1-9.2,9.2-9.2s9.2,4.1,9.2,9.2s-4.1,9.2-9.2,9.2
		S-245.3,259.2-245.3,254.1z"/>
	<path class="st0" d="M-84.2,250.5c-6.6-6.6-15.4-10.2-24.7-10.2s-18.1,3.6-24.7,10.2c-13.6,13.7-13.6,35.9,0,49.5l24.7,24.7
		l24.7-24.7C-70.6,286.4-70.6,264.2-84.2,250.5z M-108.9,288.9c-8.5,0-15.4-6.9-15.4-15.4s6.9-15.4,15.4-15.4s15.4,6.9,15.4,15.4
		S-100.4,288.9-108.9,288.9z"/>
	<path class="st0" d="M-230.5,254.1c0-3.1-2.5-5.6-5.6-5.6c-3.1,0-5.6,2.5-5.6,5.6s2.5,5.6,5.6,5.6S-230.5,257.2-230.5,254.1z"/>
	<path class="st1" d="M-79.9,246.2c-8-8-18.6-12-29.1-12s-21.1,4-29.1,12c-16.1,16.1-16.1,42.1,0,58.2l29.1,29.1l29.1-29.1
		C-63.8,288.3-63.8,262.3-79.9,246.2z M-84.2,300l-24.7,24.7l-24.7-24.7c-13.6-13.6-13.6-35.8,0-49.5c6.6-6.6,15.4-10.2,24.7-10.2
		s18.1,3.6,24.7,10.2C-70.6,264.2-70.6,286.4-84.2,300z"/>
	<path class="st1" d="M-108.9,258.1c-8.5,0-15.4,6.9-15.4,15.4s6.9,15.4,15.4,15.4s15.4-6.9,15.4-15.4S-100.4,258.1-108.9,258.1z
		 M-108.9,282.8c-5.1,0-9.3-4.2-9.3-9.3s4.2-9.3,9.3-9.3s9.3,4.2,9.3,9.3S-103.8,282.8-108.9,282.8z"/>
	<path class="st1" d="M-195.9,287.9l-4.9,1.1c-1.1,0.2-1.8,1.3-1.5,2.4c0.2,0.9,1,1.6,2,1.6c0.1,0,0.3,0,0.4,0l4.9-1.1
		c1.1-0.2,1.8-1.3,1.5-2.4C-193.8,288.3-194.9,287.6-195.9,287.9z"/>
	<path class="st1" d="M-205.7,290l-4.9,1.1c-1.1,0.2-1.8,1.3-1.5,2.4c0.2,0.9,1,1.6,2,1.6c0.1,0,0.3,0,0.4,0l4.9-1.1
		c1.1-0.2,1.8-1.3,1.5-2.4C-203.6,290.5-204.6,289.8-205.7,290z"/>
	<path class="st1" d="M-215.5,292.1l-4.9,1.1c-1.1,0.2-1.8,1.3-1.5,2.4c0.2,0.9,1,1.6,2,1.6c0.1,0,0.3,0,0.4,0l4.9-1.1
		c1.1-0.2,1.8-1.3,1.5-2.4C-213.4,292.6-214.4,291.9-215.5,292.1z"/>
	<path class="st1" d="M-225.3,294.2l-4.9,1.1c-0.1,0-0.2,0.1-0.3,0.1c-1.4-1.4-3.3-2.3-5.4-2.3c-4.2,0-7.5,3.4-7.5,7.5
		c0,4.1,3.4,7.5,7.5,7.5c4.1,0,7.5-3.4,7.5-7.5c0-0.6-0.1-1.1-0.2-1.7l4-0.9c1.1-0.2,1.8-1.3,1.5-2.4
		C-223.1,294.7-224.2,294-225.3,294.2z M-235.8,305.2c-2.5,0-4.5-2-4.5-4.5s2-4.5,4.5-4.5s4.5,2,4.5,4.5S-233.3,305.2-235.8,305.2z"
		/>
	<path class="st1" d="M-145.5,316.4l-3.9-3.2c-0.9-0.7-2.1-0.6-2.8,0.3c-0.7,0.9-0.6,2.1,0.3,2.8l3.9,3.2c0.4,0.3,0.8,0.5,1.3,0.5
		c0.6,0,1.2-0.2,1.5-0.7C-144.5,318.3-144.6,317.1-145.5,316.4z"/>
	<path class="st1" d="M-130,329.1l-3.9-3.2c-0.9-0.7-2.1-0.6-2.8,0.3c-0.7,0.9-0.6,2.1,0.3,2.8l3.9,3.2c0.4,0.3,0.8,0.5,1.3,0.5
		c0.6,0,1.2-0.2,1.5-0.7C-129,331-129.1,329.8-130,329.1z"/>
	<path class="st1" d="M-137.7,322.7l-3.9-3.2c-0.9-0.7-2.1-0.6-2.8,0.3c-0.7,0.9-0.6,2.1,0.3,2.8l3.9,3.2c0.4,0.3,0.8,0.5,1.3,0.5
		c0.6,0,1.2-0.2,1.5-0.7C-136.8,324.7-136.9,323.4-137.7,322.7z"/>
	<path class="st1" d="M-122.3,335.4l-3.9-3.2c-0.9-0.7-2.1-0.6-2.8,0.3c-0.7,0.9-0.6,2.1,0.3,2.8l3.9,3.2c0.4,0.3,0.8,0.5,1.3,0.5
		c0.6,0,1.2-0.2,1.5-0.7C-121.3,337.4-121.4,336.1-122.3,335.4z"/>
	<path class="st1" d="M-186.2,285.8l-4.9,1.1c-1.1,0.2-1.8,1.3-1.5,2.4c0.2,0.9,1,1.6,2,1.6c0.1,0,0.3,0,0.4,0l4.9-1.1
		c1.1-0.2,1.8-1.3,1.5-2.4C-184,286.2-185.1,285.5-186.2,285.8z"/>
	<path class="st1" d="M-176.4,291l-3.9-3.2c-0.9-0.7-2.1-0.6-2.8,0.3c-0.7,0.9-0.6,2.1,0.3,2.8l3.9,3.2c0.4,0.3,0.8,0.5,1.3,0.5
		c0.6,0,1.2-0.2,1.5-0.7C-175.4,293-175.5,291.7-176.4,291z"/>
	<path class="st1" d="M-168.7,297.3l-3.9-3.2c-0.9-0.7-2.1-0.6-2.8,0.3c-0.7,0.9-0.6,2.1,0.3,2.8l3.9,3.2c0.4,0.3,0.8,0.5,1.3,0.5
		c0.6,0,1.2-0.2,1.5-0.7C-167.7,299.3-167.8,298-168.7,297.3z"/>
	<path class="st1" d="M-160.9,303.7l-3.9-3.2c-0.9-0.7-2.1-0.6-2.8,0.3c-0.7,0.9-0.6,2.1,0.3,2.8l3.9,3.2c0.4,0.3,0.8,0.5,1.3,0.5
		c0.6,0,1.2-0.2,1.5-0.7C-159.9,305.7-160.1,304.4-160.9,303.7z"/>
	<path class="st1" d="M-153.2,310l-3.9-3.2c-0.9-0.7-2.1-0.6-2.8,0.3c-0.7,0.9-0.6,2.1,0.3,2.8l3.9,3.2c0.4,0.3,0.8,0.5,1.3,0.5
		c0.6,0,1.2-0.2,1.5-0.7C-152.2,312-152.3,310.7-153.2,310z"/>
	<path class="st1" d="M-108.7,337c-2.9,0-5.5,1.5-7.1,3.7l-2.6-2.1c-0.9-0.7-2.1-0.6-2.8,0.3c-0.7,0.9-0.6,2.1,0.3,2.8l3.6,2.9
		c-0.1,0.4-0.1,0.8-0.1,1.2c0,4.8,3.9,8.8,8.8,8.8c4.9,0,8.8-3.9,8.8-8.8C-99.8,340.9-103.9,337-108.7,337z M-108.7,351.5
		c-3.2,0-5.8-2.6-5.8-5.8c0-0.4,0-0.8,0.1-1.2c0,0,0.1,0,0.1-0.1c0.3-0.4,0.5-0.9,0.4-1.4c1-1.9,2.9-3.1,5.1-3.1
		c3.2,0,5.8,2.6,5.8,5.8C-103,348.9-105.5,351.5-108.7,351.5z"/>
	<path class="st1" d="M-218.7,272.7c9.7-9.7,9.7-25.2,0-34.9c-4.8-4.8-11.2-7.2-17.4-7.2c-6.3,0-12.6,2.4-17.4,7.2
		c-9.7,9.7-9.7,25.2,0,34.9l17.4,17.4L-218.7,272.7z M-250.9,240.3c4-4,9.2-6.1,14.8-6.1c5.6,0,10.9,2.2,14.8,6.1
		c8.2,8.2,8.2,21.5,0,29.7l-14.8,14.8l-14.8-14.8C-259,261.9-259,248.6-250.9,240.3z"/>
	<path class="st1" d="M-226.8,254.1c0-5.1-4.1-9.2-9.2-9.2s-9.2,4.1-9.2,9.2s4.1,9.2,9.2,9.2S-226.8,259.2-226.8,254.1z
		 M-241.6,254.1c0-3.1,2.5-5.6,5.6-5.6c3.1,0,5.6,2.5,5.6,5.6s-2.5,5.6-5.6,5.6S-241.6,257.2-241.6,254.1z"/>
</g>
</svg>
