<?xml version="1.0" standalone="no"?><!DOCTYPE svg PUBLIC "-//W3C//DTD SVG 1.1//EN" "http://www.w3.org/Graphics/SVG/1.1/DTD/svg11.dtd"><svg t="1489236427216" class="icon" style="" viewBox="0 0 1024 1024" version="1.1" xmlns="http://www.w3.org/2000/svg" p-id="2734" xmlns:xlink="http://www.w3.org/1999/xlink" width="64" height="64"><defs><style type="text/css"></style></defs><path d="M859.97254 0H164.02746c-90.800915 0-164.02746 73.226545-164.02746 164.02746v695.94508c0 90.800915 73.226545 164.02746 164.02746 164.02746h695.94508c90.800915 0 164.02746-73.226545 164.02746-164.02746V164.02746c0-90.215103-73.226545-164.02746-164.02746-164.02746z m-305.79405 407.7254v66.782609h124.778032c22.846682 0 41.592677 19.331808 41.592677 43.350115 0 24.018307-18.745995 43.350114-41.592677 43.350114h-124.778032v188.045767c-0.585812 23.432494-19.331808 42.17849-41.592678 42.178489s-41.006865-18.745995-41.592677-42.178489v-188.045767H346.215103C323.954233 560.036613 306.379863 541.290618 306.379863 517.858124s17.574371-42.764302 40.421052-43.350115h124.778032V407.7254H346.215103c-22.846682 0-41.592677-19.331808-41.592677-43.350114 0-24.018307 18.745995-43.350114 41.592677-43.350114h57.409611l-39.83524-73.812357c-3.514874-5.858124-5.272311-13.473684-5.272312-21.089245 0-24.018307 18.745995-43.350114 41.592678-43.350115 15.231121 0 28.704805 8.787185 36.320366 21.675058l62.681922 115.990846c0 0.585812 0 0.585812 0.585813 1.171625h22.846681l66.196797-117.162471c7.615561-12.302059 20.503432-19.91762 35.148741-19.917621 22.846682 0 41.592677 19.331808 41.592678 43.350115 0 7.615561-1.757437 14.645309-5.272312 21.089245l-41.006865 73.226544h60.924485c22.26087 0.585812 40.421053 19.91762 40.421053 43.350115s-17.574371 42.764302-40.421053 43.350114l-125.949656-1.171625z" p-id="2735" fill="#004198"></path></svg>